<?xml version="1.0" encoding="utf-8"?>
<!DOCTYPE svg PUBLIC "-//W3C//DTD SVG 1.0//EN" "http://www.w3.org/TR/2001/REC-SVG-20010904/DTD/svg10.dtd">
<svg version="1.0" xmlns="http://www.w3.org/2000/svg" width="1024px" height="1024px" viewBox="0 0 1024 1024" preserveAspectRatio="xMidYMid meet">
 <g fill="#ffffff">
  <path d="M758 773.8 c-11.7 -1.8 -22 -9.2 -26.9 -19.7 l-2.6 -5.6 0 -42 0 -42 2.7 -5.2 c3.7 -6.9 8.4 -11.5 15.5 -14.9 5.2 -2.6 6.9 -2.9 17.2 -3.1 l11.5 -0.2 1.1 -2.8 c0.7 -1.5 2.1 -3.6 3.2 -4.5 1.9 -1.7 16.8 -9 21.1 -10.3 l2.2 -0.6 0 25 0 25.1 -13.1 0 c-12.2 0 -13.2 -0.1 -16.7 -2.5 -6.1 -4.2 -14.4 -2.7 -17 3 -0.9 1.8 -1.2 11.8 -1.2 34.1 0 28 0.2 31.9 1.7 34.5 2.5 4.2 7 6.1 11.6 4.8 5.6 -1.5 6.7 -3.9 6.7 -14.5 l0 -9.2 -4 -0.7 -4 -0.7 0 -11.4 0 -11.4 18.1 0 18.1 0 -0.4 24.8 c-0.3 24.2 -0.4 24.8 -2.9 30.2 -7.2 15.2 -22.8 22.6 -41.9 19.8z"/>
  <path d="M562.1 772 c-12.4 -4.5 -21.6 -15.5 -24.1 -28.9 -0.5 -3 -1 -20.7 -1 -39.7 0 -40.9 0.2 -41.7 10.4 -52 8.4 -8.4 15.2 -10.7 30.4 -10.2 9.8 0.3 11.4 0.6 17.5 3.6 7.4 3.6 12.2 8.8 15.9 16.8 2.3 4.8 2.3 5.5 2.3 44.4 0 39 0 39.6 -2.3 45.2 -3.3 8.1 -10.6 15.8 -18.4 19.4 -8.4 3.8 -22.4 4.5 -30.7 1.4z m20 -27 c1.6 -1.2 3.3 -3.6 3.9 -5.8 1.6 -6 1.3 -60.5 -0.4 -64.6 -1.8 -4.3 -5.1 -6.6 -9.6 -6.6 -4.9 0 -8.2 2 -10.2 6 -1.6 3.1 -1.8 6.9 -1.8 33.3 0 31.9 0.4 34.8 5.1 38.1 3.3 2.2 9.5 2 13 -0.4z"/>
  <path d="M161 707.4 l0 -65.5 28.3 0.3 c26.9 0.3 28.4 0.4 32.3 2.5 5.6 3 9.9 7.5 13.2 13.7 l2.7 5.1 0 23.5 c0 23.2 0 23.6 -2.6 29 -3.6 7.7 -7.1 11.5 -13.5 14.6 -5.3 2.6 -6.3 2.7 -19.5 2.7 l-13.9 -0.1 0 19.3 c0 22.6 1.7 20.5 -15.7 20.5 l-11.3 0 0 -65.6z m47.7 -3.6 c2.2 -2 2.3 -2.8 2.3 -15.4 0 -12.8 -0.1 -13.4 -2.6 -16.3 -2.5 -3 -2.8 -3.1 -11.5 -3.1 l-8.9 0 0 18.5 0 18.5 9.2 0 c8 0 9.5 -0.3 11.5 -2.2z"/>
  <path d="M394.4 769.3 c-1.3 -7.9 -7.6 -36.6 -8.4 -38.6 -0.8 -2.1 -0.8 -2.1 -2 0.8 -1.1 2.7 -5 19.8 -8 34.8 l-1.1 5.7 -11.5 0 c-6.3 0 -11.4 -0.3 -11.4 -0.6 0 -1 -7.9 -51.6 -9 -57.4 -0.5 -3 -3 -19.2 -5.5 -36 -2.5 -16.8 -4.8 -31.8 -5.1 -33.3 l-0.6 -2.8 13.4 0.3 13.3 0.3 0.8 6.5 c1.6 12.7 6.6 42.6 7.5 45 0.9 2.3 1.2 1.9 4.6 -5.2 4.1 -8.5 5 -9.5 10.3 -11.3 7.4 -2.6 13.8 1.9 17.5 12.2 1.3 3.4 2.6 6.3 2.9 6.3 0.9 0 3.5 -12.8 6.9 -34.3 1.6 -10.3 3 -19 3 -19.2 0 -0.3 5.9 -0.5 13.1 -0.5 11.9 0 13 0.1 12.5 1.8 -0.5 1.7 -2.3 13.8 -5.1 34.2 -0.9 6.3 -4.5 30 -8 52.6 -3.6 22.6 -6.5 41.4 -6.5 41.8 0 0.3 -5.2 0.6 -11.5 0.6 l-11.4 0 -0.7 -3.7z"/>
  <path d="M470.8 772.2 l-13.8 -0.3 0 -64.9 0 -64.9 32.5 -0.3 32.5 -0.3 0 13.3 0 13.2 -18.5 0 -18.5 0 0 13.5 0 13.5 14 0 14 0 0 14 0 14 -14 0 -14 0 -0.2 24.8 -0.3 24.7 -13.7 -0.3z"/>
  <path d="M632 707.3 l0 -65.3 25.8 0 c28.1 0 32.1 0.6 39.2 5.8 4.4 3.3 5.4 4.5 8.8 10.7 l2.7 5 0 22 c0 20.8 -0.1 22.3 -2.3 27.1 -1.3 2.8 -4.1 6.8 -6.2 8.9 l-3.9 3.8 1.9 4.6 c1 2.5 4.8 11.4 8.5 19.6 3.7 8.3 7.6 16.9 8.6 19.3 l1.8 4.2 -15.3 0 -15.4 0 -6.4 -15.2 c-3.6 -8.4 -8 -19.3 -9.9 -24.1 l-3.4 -8.8 -3.5 0.3 -3.5 0.3 0.4 23.3 0.3 23.2 -2.9 0.1 c-1.5 0 -7.9 0.2 -14 0.2 l-11.3 0.2 0 -65.2z m47.5 -9.8 c2.3 -2.3 2.5 -3.1 2.5 -13 0 -9.9 -0.2 -10.7 -2.5 -13 -2.2 -2.3 -3.2 -2.5 -10.8 -2.5 -8.1 0 -8.5 0.1 -8.9 2.3 -0.7 3.9 -1 26.6 -0.3 27.7 0.3 0.5 4.4 1 9.1 1 7.7 0 8.7 -0.2 10.9 -2.5z"/>
  <path d="M821.2 772 c-0.4 -0.3 -0.6 -29.6 -0.4 -65.2 l0.3 -64.8 31 0 30.9 0 0 13 0 13 -17.7 0.2 -17.8 0.3 -0.3 13.3 -0.3 13.2 11.1 0 11 0 0 13.5 0 13.4 -10.7 0.3 -10.8 0.3 -0.3 5.5 c-0.2 3 -0.1 8.3 0.3 11.8 l0.7 6.2 17.4 0 17.4 0 0 13 0 12.9 -30.6 0.3 c-16.8 0.2 -30.9 0.1 -31.2 -0.2z"/>
  <path d="M256 707 l0 -65 29.5 0 29.5 0 0 13 0 13 -16 0 -16 0 0 13.5 0 13.5 11 0 11 0 0 13.5 0 13.5 -11 0 -11 0 0 12 0 12 16 0 16 0 0 13 0 13 -29.5 0 -29.5 0 0 -65z"/>
  <path d="M325 564.5 l0 -16.5 6.3 0 c15.4 0 34.2 -10.1 46.1 -24.8 6.1 -7.5 12.2 -19.7 14 -27.7 l1.1 -5 16.5 -0.5 c17.9 -0.5 20 -1.1 22.6 -6.2 2.8 -5.4 0.3 -11.3 -6.3 -14.7 -1.3 -0.7 -8 -1.1 -17 -1.1 l-14.8 0 -1.8 -9.1 c-3.4 -17.6 -11.7 -32.8 -24.8 -45.6 -18.7 -18.4 -30.3 -24 -93.4 -45.8 -58.2 -20.2 -95.8 -33.5 -111 -39.6 l-12 -4.8 98.1 0 c96.8 -0.1 98.2 -0.1 100.7 -2.1 3.8 -3 5.2 -8.1 3.3 -11.8 -3 -5.9 -1.3 -5.7 -47.5 -6.2 l-42.6 -0.5 -0.3 -18.2 -0.2 -18.3 214 0 214 0 -0.2 63.8 -0.3 63.7 -11.7 0.5 -11.7 0.5 -6.2 4.4 c-14.2 10.4 -27.9 29 -33.3 45.4 -1.4 4.1 -4.6 20.1 -4.6 22.8 0 0.5 -6.3 0.9 -13.9 0.9 -14.5 0 -18.1 0.7 -21.8 4.2 -2.8 2.6 -3.1 9.2 -0.7 12.6 2.8 4.1 5.3 4.7 21.9 5.2 l15.9 0.5 0.8 4 c0.5 2.2 3.1 8.5 5.8 14.1 10.6 21.8 30.3 36.7 52.5 39.6 l8.5 1.2 0 15.8 0 15.8 -44.9 0 -45 0 -0.6 -4.7 c-0.9 -6.5 -4.1 -19 -6 -23.9 -10.9 -27.1 -34.5 -48.4 -62.5 -56.4 -10.9 -3.1 -29 -3.8 -40 -1.6 -26 5.3 -47.9 20.7 -62.1 43.7 -6.8 11.1 -12.9 29.2 -12.9 38.7 l0 4.2 -46 0 -46 0 0 -16.5z m174.7 -110.1 c10.8 -2.7 22 -9 29.8 -16.8 12.3 -12.4 16.5 -25.8 12.9 -41.2 -0.5 -1.9 0 -2.2 5.4 -2.8 7.4 -0.8 14 -4.8 18.5 -11.1 4.3 -6.2 5.5 -9.9 5.6 -17 0.1 -8.3 -3 -14.5 -10.7 -21.7 -9.6 -8.8 -8.6 -9.1 -23.1 6 -15.2 15.8 -19.3 18.2 -31.2 18.2 -11.7 0 -16.9 -3 -31.5 -18.5 -6.4 -6.9 -12.3 -12.5 -13.1 -12.5 -2.4 0 -11.2 4.9 -15.2 8.5 -2.1 1.9 -5.3 6.3 -7.2 9.7 -3.1 5.8 -3.4 7 -3.4 15.3 0 7.8 0.4 9.7 2.7 14.5 3.3 6.6 10.1 13.8 16.6 17.3 6 3.2 15.8 5.1 22.3 4.4 l5.1 -0.6 -0.7 4.7 c-1.1 7.9 -5.2 14 -18.2 26.9 l-12.2 12.3 2.7 1.4 c2.6 1.3 13.8 4.2 19.7 5 5 0.7 19.1 -0.4 25.2 -2z m23.1 -117.7 c7.8 -7.9 14.2 -14.7 14.2 -15.1 0 -0.5 -3.4 -4.6 -7.6 -9.2 -11.4 -12.5 -18.9 -15.5 -29.7 -11.8 -3.7 1.2 -6.6 3.6 -13.2 10.6 -4.7 5 -8.5 9.4 -8.5 9.8 0 1.3 28.1 30 29.4 30 0.6 0 7.6 -6.4 15.4 -14.3z m131.9 -16.8 c6.3 -2.4 10.6 -8.8 10.5 -15.6 -0.1 -5.4 -2.3 -9.5 -6.7 -12.9 -9.5 -7.2 -23.6 -1.3 -25.2 10.5 -1.6 12 10.5 22.2 21.4 18z"/>
  <path d="M710 375 c0 -1.9 0.6 -2 14.8 -2 8.1 0 17.8 -0.3 21.5 -0.7 6.8 -0.6 6.9 -0.6 6.5 1.8 l-0.3 2.4 -21.2 0.3 c-20.8 0.2 -21.3 0.2 -21.3 -1.8z"/>
  <path d="M775 369.9 c0 -2.2 0.7 -2.5 9.6 -4.2 18.3 -3.6 43.6 -12.4 62.9 -21.9 15.9 -7.9 28.7 -17 48 -34.2 3.7 -3.3 3.3 -3.2 -6 2 -5.5 3.1 -12.2 6.7 -15 7.9 -2.7 1.3 -8.1 3.7 -12 5.5 -18.7 8.6 -47.4 17.5 -74.2 23 -5.2 1.1 -10.4 2 -11.4 2 -1.8 0 -1.9 -1.2 -1.9 -29 l0 -29 74.7 0 74.7 0 -3 3.1 c-5.1 5.4 -24.6 22.3 -32.9 28.5 -18.9 14.2 -38.8 25.3 -61.3 34.1 -12.9 5 -39.5 12.9 -47.1 13.9 -4.9 0.6 -5.1 0.6 -5.1 -1.7z"/>
  <path d="M710 323.7 l0 -34.7 21.5 0 21.5 0 0 33 c0 25.6 -0.3 33.2 -1.2 33.5 -2.8 0.9 -10.1 1.5 -25.5 2.1 l-16.3 0.7 0 -34.6z"/>
  <path d="M111 284.5 l0 -18.5 64.5 0 64.5 0 0 18.5 0 18.5 -64.5 0 -64.5 0 0 -18.5z"/>
 </g>
</svg>